# xmcd CD database file
#
# Track frame offsets:
#	150
#	12375
#	22507
#	34520
#	46806
#	65543
#	78420
#	108893
#	143198
#	189045
#	202839
#	215148
#	229879
#
# Disc length: 3237 seconds
#
# Revision: 1
# Processed by: cddbd v1.5.2PL0 Copyright (c) Steve Scherf et al.
# Submitted via: CDex 1.51
#
DISCID=9d0ca30d
DTITLE=Various Artist - Beginner Jazz Piano (～1954)
DYEAR=2013
DGENRE=Jazz
TTITLE0=Lullaby Of Birdland
TTITLE1=Tiger Rag
TTITLE2=Honeysuckle Rose
TTITLE3=I’ll Remember April
TTITLE4=Gone With The Wind
TTITLE5=Misty
TTITLE6=Doodlin’
TTITLE7=Blue Monk
TTITLE8=Tenderly
TTITLE9=Bouncing With Bud
TTITLE10=Stardust
TTITLE11=Everybody Loves My Baby
TTITLE12=When You’re Smiling
EXTD=YEAR: 2013
EXTT0=
EXTT1=
EXTT2=
EXTT3=
EXTT4=
EXTT5=
EXTT6=
EXTT7=
EXTT8=
EXTT9=
EXTT10=
EXTT11=
EXTT12=
PLAYORDER=
